<svg width="16" height="17" viewBox="0 0 16 17" fill="none" xmlns="http://www.w3.org/2000/svg">
<path fill-rule="evenodd" clip-rule="evenodd" d="M9.36054 6.87762V1.5C9.36054 0.947716 8.91283 0.5 8.36054 0.5H7.00721C6.67731 0.5 6.42177 0.785482 6.42177 1.11539C6.42177 4.35957 3.8634 6.98951 0.707483 6.98951C0.331065 6.98951 0 7.27787 0 7.65429V9.12238C0 9.67466 0.447716 10.1224 1 10.1224H6.63946V15.5C6.63946 16.0523 7.08717 16.5 7.63946 16.5H8.99279C9.32269 16.5 9.57823 16.2145 9.57823 15.8846C9.57823 12.6404 12.1366 10.0105 15.2925 10.0105C15.6689 10.0105 16 9.72213 16 9.34571V7.87762C16 7.32534 15.5523 6.87762 15 6.87762H9.36054Z" fill="#F9FCFE"/>
</svg>
